<svg xmlns="http://www.w3.org/2000/svg" xmlns:xlink="http://www.w3.org/1999/xlink" version="1.1" id="レイヤー_1" x="0px" y="0px" viewBox="0 0 15.1 15.1" style="enable-background:new 0 0 15.1 15.1;" xml:space="preserve" class="my_svg04 replaced-svg">
<style type="text/css">
	.st0{fill:current;}
</style>
<g>
	<path class="st0" d="M9.9,5.2C6.5,2.5,2.5,6.5,5.2,9.9C8.7,12.6,12.6,8.6,9.9,5.2z"></path>
	<path class="st0" d="M11.3,5.7c0.3,0.6,0.5,1.2,0.5,1.9c0,2.3-1.9,4.2-4.2,4.2S3.4,9.9,3.4,7.6c0-0.7,0.2-1.3,0.5-1.9H0l0,7.6   c0,1,0.9,1.9,1.9,1.9h11.3c1,0,1.9-0.9,1.9-1.9V5.7H11.3z"></path>
	<path class="st0" d="M13.2,0L1.9,0C0.9,0,0,0.8,0,1.9l0,2.8h4.5c0.8-0.8,1.9-1.4,3.1-1.4s2.3,0.5,3.1,1.4h4.5V1.9   C15.1,0.8,14.3,0,13.2,0z M13.5,3.5h-1.9V1.6h1.9V3.5z"></path>
</g>
</svg>