<svg version="1.1" id="Layer_1" xmlns="http://www.w3.org/2000/svg" xmlns:xlink="http://www.w3.org/1999/xlink" x="0px" y="0px" viewBox="0 0 64 64" style="enable-background:new 0 0 64 64;" xml:space="preserve">
<path d="M13.7192383,30.7244873c0.15271,1.5639648,0.8610229,6.2321167,3.9576416,9.7929077
	c-0.5670776-0.083374-0.9220581-0.1085815-0.9630127-0.111145c-0.0075684-0.0004883-0.0141602,0.003479-0.0216675,0.0031738
	l-2.8152466-2.401123c-0.4213867-0.3588867-1.0517578-0.309082-1.409668,0.1118164
	c-0.3583984,0.4204102-0.3085938,1.0512695,0.1118164,1.409668l3.1369629,2.6755371
	c0.2103271,1.8684082,1.0772095,6.7588501,4.5378418,10.2194824c3.4540405,3.4540405,8.3339844,4.317688,10.1798706,4.5272217
	c0.4517822,1.3690186,0.9575806,2.7289429,1.5203247,4.0767822c0.1601562,0.3837891,0.5317383,0.6152344,0.9233398,0.6152344
	c0.128418,0,0.2587891-0.0249023,0.3847656-0.0776367c0.5097656-0.2128906,0.7504883-0.7983398,0.5375977-1.3081055
	c-0.7525635-1.8023682-1.3974609-3.6270752-1.9436035-5.4663086c0.4889526,0.0415039,0.9703369,0.0629883,1.4431152,0.0629883
	c1.472168,0,2.8642578-0.2006836,4.1616211-0.6020508c4.7774048-1.4807129,7.8445435-5.5341187,8.8370972-7.0189819
	l3.4192505-1.5947876c0.5004883-0.2333984,0.7167969-0.8286133,0.4833984-1.3291016
	c-0.2333984-0.5009766-0.8291016-0.7172852-1.3291016-0.4833984l-2.8903198,1.3480835
	c-0.6099243-0.2502441-2.5084229-0.9592896-4.9822388-1.2650146c3.2733765-1.9081421,5.3652344-4.7758179,6.0822144-5.8686523
	l3.6296997-1.6929321c0.5004883-0.2333984,0.7167969-0.8286133,0.4833984-1.3291016
	c-0.2329102-0.5-0.8291016-0.7177734-1.3291016-0.4833984l-3.2594604,1.5202026
	c-0.7633057-0.3063965-2.9098511-1.0743408-5.609375-1.3043213c2.7601929-1.9651489,4.4833984-4.454895,5.0009155-5.2679443
	l3.5422363-1.6525269c0.5004883-0.2333984,0.7167969-0.8286133,0.4833984-1.3291016
	c-0.234375-0.5004883-0.828125-0.7182617-1.3291016-0.4833984l-3.4268799,1.5986938
	c-0.4860229-0.1876221-1.347229-0.4879761-2.4673462-0.7564697c4.1297607-2.0880127,6.5930176-5.8661499,7.0479126-6.6071777
	l3.3741455-1.8185425c0.4858398-0.262207,0.6674805-0.8686523,0.4057617-1.3549805
	c-0.2617188-0.4853516-0.8691406-0.6674805-1.3549805-0.4057617l-3.3661499,1.814209
	c-1.3250732-0.4990845-4.8485107-1.6118164-8.7422485-1.1463623c1.1326294-4.3106689,0.0219116-8.5432739-0.3892822-9.8505859
	l1.7427979-3.7098389c0.2348633-0.5,0.0200195-1.0957031-0.4799805-1.3305664
	c-0.5009766-0.2348633-1.0961914-0.0205078-1.3305664,0.4799805l-1.7710571,3.7700195
	c-1.2593994,0.6940308-5.8434448,3.4884644-7.8432007,8.362793c-0.0452271,0.1077881-0.0811157,0.2234497-0.1233521,0.3339233
	c-3.7973022-3.020752-8.5165405-3.6053467-9.4933472-3.694397l-3.0224609-2.5775146
	c-0.4213867-0.359375-1.0517578-0.3085938-1.409668,0.1118164c-0.3583984,0.4204102-0.3085938,1.0512695,0.1118164,1.409668
	l3.1192627,2.6600952c0.1348877,1.3433838,0.6652832,4.8058472,2.6471558,7.975769
	c-2.7380371-1.0359497-5.046936-1.2115479-5.2058716-1.22229c-0.0023804-0.0001831-0.0046387,0.0011597-0.007019,0.0010376
	L14.03125,17.7783203c-0.4208984-0.3588867-1.0522461-0.309082-1.409668,0.1118164
	c-0.3583984,0.4204102-0.3085938,1.0512695,0.1118164,1.409668l2.9804688,2.541626
	c0.1651611,1.4856567,0.7589111,4.9319458,2.7671509,8.0310669c-1.6685181-0.4894409-2.9969482-0.6578369-3.5085449-0.7075195
	l-3.0706177-2.6185913c-0.4208984-0.359375-1.0512695-0.3085938-1.409668,0.1118164s-0.3085938,1.0512695,0.1118164,1.409668
	L13.7192383,30.7244873z M29.9842529,45.3152466c0.5211182,0.1141357,1.0870972,0.2088013,1.677002,0.2871704
	c-0.5218506,0.2940674-1.0369873,0.6166382-1.5413818,0.9814453C30.0665283,46.161438,30.0267944,45.7382202,29.9842529,45.3152466z
	 M29.8739624,37.144165c0.3927612,0.0643311,0.8099365,0.1168823,1.2453613,0.1586914
	c-0.4507446,0.3118896-0.8961792,0.6469116-1.3339233,1.0143433C29.8043213,37.927002,29.8440552,37.5352173,29.8739624,37.144165z
	 M31.5908813,27.7924805c0.0580444,0.0141602,0.1119385,0.0255127,0.1689453,0.0388794
	c-0.0703125,0.0357056-0.1414795,0.0657349-0.2116089,0.1027832C31.5623779,27.8868408,31.5766602,27.8395386,31.5908813,27.7924805
	z M29.6045532,27.454895c-0.0696411-0.1140137-0.131897-0.2367554-0.2039185-0.3480225
	c0.0921631,0.0335693,0.1861572,0.0652466,0.279541,0.0975952C29.6549072,27.2877808,29.6294556,27.3710327,29.6045532,27.454895z
	 M27.8843994,36.9412842c-0.1950684-0.3407593-0.4169312-0.6495361-0.6315918-0.967041
	c0.2456665,0.069397,0.4719238,0.1268311,0.6911011,0.1794434C27.9187012,36.4145508,27.9049072,36.678772,27.8843994,36.9412842z
	 M21.6679688,51.0107422c-2.6879883-2.6879883-3.5893555-6.5229492-3.8828125-8.449707
	c1.0566406,0.1816406,2.6860352,0.5585938,4.375,1.3164062c0.1777344,0.0834961,0.355957,0.1669922,0.5605469,0.2749023
	c1.3286133,0.652832,2.4770508,1.4580078,3.4121094,2.3935547c0.769043,0.769043,1.449707,1.6821289,2.0283203,2.7236328
	c0.1935425,0.3382568,0.367981,0.6765747,0.5345459,1.0076904c0.2965698,1.5269165,0.6557617,3.0477905,1.0881348,4.5586548
	C27.8024292,54.499939,24.2225342,53.5650024,21.6679688,51.0107422z M36.8696289,52.3422852
	c-1.6710815,0.5158081-3.5543213,0.6216431-5.5904541,0.3573608c-0.3216553-1.2731934-0.5921021-2.5524902-0.8141479-3.8358765
	c1.4414673-1.1957397,2.9626465-2.0661621,4.536438-2.5551758c3.609375-1.1217041,7.3727417-0.2335815,9.2172852,0.3591919
	c0.0003662,0.0100708,0.005249,0.0197144,0.0058594,0.0297852C43.0599976,48.2717896,40.4859619,51.2217407,36.8696289,52.3422852z
	 M37.5800781,43.2587891c-2.7993164,0.8651123-5.7084961,0.4786377-7.7660522-0.0409546
	c-0.0275879-0.4819946-0.048645-0.9665527-0.0562134-1.4727173c-0.0066528-0.2163696-0.0093384-0.4398193-0.0135498-0.6605225
	c1.8716431-1.9087524,3.8765869-3.2109375,5.9676514-3.8594971c3.6303711-1.1259766,7.4067383-0.2275391,9.2416992,0.3657227
	C43.7963867,39.1591797,41.2133789,42.1328125,37.5800781,43.2587891z M36.3847656,34.8745117
	c-2.263855,0.7000732-4.5617065,0.578186-6.3167725,0.2766724c0.1699219-1.4747925,0.418457-2.9487305,0.7404175-4.3952637
	c1.2055054-0.8696289,2.4498291-1.5161133,3.7077026-1.9038696c3.6206055-1.125,7.3984375-0.234375,9.237793,0.355957
	C42.5932617,30.7783203,40.0073242,33.7495117,36.3847656,34.8745117z M47.5131836,20.125
	c-1.1577148,1.5693359-3.7407227,4.5405273-7.3735352,5.6665039c-1.5256958,0.4751587-3.2213745,0.6149292-5.0354614,0.4337769
	c-0.1363525-0.0411377-0.2803955-0.0586548-0.4293823-0.0338745c-0.0922852,0.0151367-0.1791992,0.0415039-0.2597656,0.0776367
	c-0.4696045-0.0507812-1.2498169-0.1599121-2.1921387-0.3808594c0.4220581-1.2235718,0.8959351-2.4160767,1.4205933-3.5709839
	c0.0032349-0.0012207,0.0065918-0.0004883,0.0098267-0.00177c0.0490112-0.0195312,0.0830078-0.0569458,0.1270142-0.0829468
	c0.0429688-0.0250854,0.0908813-0.0358276,0.1307983-0.0679321c1.3974609-1.1274414,2.8647461-1.9335938,4.362793-2.3959961
	C41.8959961,18.6430664,45.6748047,19.5356445,47.5131836,20.125z M38.0991211,8.9370117
	c0.4518433,1.8168335,1.0432739,5.4637451-0.1781006,8.857605c-0.0795288,0.0230713-0.1588745,0.0385742-0.2384033,0.0632935
	c-1.3874512,0.4286499-2.741333,1.1139526-4.0429688,2.0224609c-0.5912476-1.1119385-1.2834473-2.1070557-2.0679932-2.9747925
	c0.1061401-0.3695679,0.2245483-0.7317505,0.3687744-1.0755005C33.3793945,12.3222656,36.4731445,9.9780273,38.0991211,8.9370117z
	 M29.7099609,17.828125c0.885437,0.8850098,1.645874,1.9699097,2.2966919,3.2449341
	c-0.6367798,1.3616333-1.201416,2.7809448-1.7003174,4.2354736c-2.0432129-0.7119141-3.757019-1.7113647-5.0612183-3.015564
	c-2.6865234-2.6870117-3.5883789-6.5200195-3.8823242-8.4472656C23.2636719,14.1767578,27.0253906,15.1435547,29.7099609,17.828125z
	 M26.1333008,26.2119141c1.1060181,1.1065063,2.0160522,2.49823,2.7201538,4.1239014
	c-0.2822266,1.2700195-0.4987183,2.5505981-0.6658936,3.8172607c-0.5922241-0.1511841-1.276001-0.3571167-2.0195923-0.6574707
	c-1.7724609-0.6723633-3.328125-1.6469727-4.5-2.8188477c-2.6865234-2.6870117-3.5883789-6.5253906-3.8823242-8.4560547
	C19.6875,22.5551758,23.4487305,23.527832,26.1333008,26.2119141z M24.1582031,35.2958984
	c1.5004883,1.5004883,2.6474609,3.4960938,3.4077148,5.9287109c0.0756836,0.2462769,0.1401367,0.4814453,0.1990356,0.7108765
	c0.010498,0.5564575,0.0408936,1.1020508,0.0761108,1.6513062c-1.0878906-0.1754761-2.6263428-0.5219727-4.2116699-1.2156982
	c-0.2060547-0.1088867-0.4116211-0.2060547-0.6123047-0.3007812c-1.2871094-0.6147461-2.4052734-1.3916016-3.3237305-2.3095703
	c-2.6865234-2.6870117-3.5883789-6.5258789-3.8823242-8.456543C17.7128906,31.6386719,21.4741211,32.6113281,24.1582031,35.2958984z
	" id="id_107" style="fill: rgb(255, 255, 255);"></path>
<path d="M34.7026367,23.9106445c0.0410156,0.5244141,0.4790039,0.9223633,0.9960938,0.9223633
	c0.0258789,0,0.0522461-0.0009766,0.0786133-0.0029297c1.605957-0.125,3.1679688-0.4780273,4.6420898-1.0488281
	c0.5932617-0.2290039,1.1816406-0.4980469,1.7490234-0.7993164c0.487793-0.2587891,0.6733398-0.8642578,0.4145508-1.3520508
	c-0.2592773-0.4882812-0.8642578-0.6743164-1.3520508-0.4145508c-0.4980469,0.2641602-1.0131836,0.5-1.5327148,0.7006836
	c-1.293457,0.5004883-2.6645508,0.8100586-4.0761719,0.9199219C35.0712891,22.8789062,34.659668,23.3598633,34.7026367,23.9106445z" id="id_108" style="fill: rgb(255, 255, 255);"></path>
<path d="M36.6982422,30.4477539c-1.2944336,0.5004883-2.6660156,0.8100586-4.0761719,0.9199219
	c-0.5507812,0.0429688-0.9624023,0.5239258-0.9194336,1.074707c0.0410156,0.5244141,0.4790039,0.9223633,0.9960938,0.9223633
	c0.0258789,0,0.0522461-0.0009766,0.0786133-0.0029297c1.6044922-0.125,3.1660156-0.4780273,4.6420898-1.0488281
	c0.5932617-0.2290039,1.1816406-0.4980469,1.7490234-0.7993164c0.487793-0.2587891,0.6733398-0.8642578,0.4145508-1.3520508
	c-0.2597656-0.4882812-0.8652344-0.6743164-1.3520508-0.4145508C37.7329102,30.0112305,37.2177734,30.2470703,36.6982422,30.4477539
	z" id="id_109" style="fill: rgb(255, 255, 255);"></path>
<path d="M38.9926758,38.4780273c-0.4980469,0.2641602-1.0131836,0.5-1.5327148,0.7006836
	c-1.2944336,0.5004883-2.6660156,0.8100586-4.0761719,0.9199219c-0.5507812,0.0429688-0.9624023,0.5239258-0.9194336,1.074707
	c0.0410156,0.5244141,0.4790039,0.9223633,0.9960938,0.9223633c0.0258789,0,0.0522461-0.0009766,0.0786133-0.0029297
	c1.6040039-0.125,3.1660156-0.4780273,4.6420898-1.0488281c0.5932617-0.2290039,1.1816406-0.4980469,1.7490234-0.7993164
	c0.487793-0.2587891,0.6733398-0.8642578,0.4145508-1.3520508C40.0854492,38.4047852,39.4799805,38.21875,38.9926758,38.4780273z" id="id_110" style="fill: rgb(255, 255, 255);"></path>
<path d="M38.9926758,47.2089844c-0.4980469,0.2641602-1.0131836,0.5-1.5327148,0.7006836
	c-1.293457,0.5004883-2.6650391,0.8100586-4.0761719,0.9199219c-0.5507812,0.0429688-0.9624023,0.5239258-0.9194336,1.074707
	c0.0410156,0.5244141,0.4790039,0.9223633,0.9960938,0.9223633c0.0258789,0,0.0522461-0.0009766,0.0786133-0.0029297
	c1.6054688-0.125,3.1674805-0.4780273,4.6420898-1.0488281c0.5932617-0.2290039,1.1816406-0.4980469,1.7490234-0.7993164
	c0.487793-0.2587891,0.6733398-0.8642578,0.4145508-1.3520508C40.0854492,47.1352539,39.4799805,46.949707,38.9926758,47.2089844z" id="id_111" style="fill: rgb(255, 255, 255);"></path>
<path d="M24.6523438,48.5410156c-1.0092773-0.9516602-1.8798828-2.0556641-2.5874023-3.2817383
	c-0.2768555-0.4785156-0.8876953-0.6425781-1.3662109-0.3662109c-0.4780273,0.2763672-0.6420898,0.8876953-0.3662109,1.3662109
	c0.8051758,1.3945312,1.796875,2.6518555,2.9477539,3.7368164c0.465332,0.4389648,0.9619141,0.8535156,1.4755859,1.2333984
	c0.1787109,0.1323242,0.3867188,0.1958008,0.5932617,0.1958008c0.3066406,0,0.6088867-0.1401367,0.8051758-0.4057617
	c0.328125-0.4438477,0.234375-1.0703125-0.2099609-1.3984375C25.4946289,49.2885742,25.0600586,48.925293,24.6523438,48.5410156z" id="id_112" style="fill: rgb(255, 255, 255);"></path>
<path d="M23.277832,40.0102539c0.1787109,0.1323242,0.3867188,0.1958008,0.5932617,0.1958008
	c0.3066406,0,0.6088867-0.1401367,0.8051758-0.4057617c0.328125-0.4438477,0.234375-1.0703125-0.2099609-1.3984375
	c-0.449707-0.3325195-0.8847656-0.6962891-1.2924805-1.0805664c-1.0097656-0.9521484-1.8803711-2.0556641-2.5874023-3.28125
	c-0.2768555-0.4790039-0.8876953-0.6435547-1.3662109-0.3662109c-0.4780273,0.2763672-0.6420898,0.8876953-0.3662109,1.3662109
	c0.8046875,1.394043,1.7963867,2.6508789,2.9477539,3.7363281C22.2675781,39.215332,22.7641602,39.6303711,23.277832,40.0102539z" id="id_113" style="fill: rgb(255, 255, 255);"></path>
<path d="M24.1948242,30.4467773c0.1787109,0.1328125,0.3876953,0.1967773,0.5942383,0.1967773
	c0.3061523,0,0.6083984-0.1401367,0.8041992-0.4047852c0.3291016-0.4433594,0.2358398-1.0698242-0.2080078-1.3989258
	c-0.453125-0.3354492-0.8881836-0.6992188-1.2929688-1.0810547c-1.0097656-0.9521484-1.8803711-2.0556641-2.5874023-3.28125
	c-0.2768555-0.4785156-0.887207-0.6430664-1.3662109-0.3662109c-0.4780273,0.2763672-0.6420898,0.8876953-0.3662109,1.3662109
	c0.8046875,1.3935547,1.7963867,2.6508789,2.9477539,3.7363281C23.1821289,29.6494141,23.6782227,30.0644531,24.1948242,30.4467773z
	" id="id_114" style="fill: rgb(255, 255, 255);"></path>
<path d="M28.347168,22.8256836c0.1787109,0.1323242,0.387207,0.1962891,0.59375,0.1962891
	c0.3061523,0,0.6083984-0.1401367,0.8046875-0.4052734c0.3286133-0.4438477,0.2353516-1.0698242-0.2089844-1.3984375
	c-0.4526367-0.3349609-0.8876953-0.6987305-1.2929688-1.0810547c-1.0102539-0.9526367-1.8808594-2.0566406-2.5874023-3.28125
	c-0.2768555-0.4785156-0.8876953-0.6430664-1.3662109-0.3662109c-0.4780273,0.2763672-0.6420898,0.8876953-0.3662109,1.3662109
	c0.8041992,1.3930664,1.7958984,2.6499023,2.9477539,3.7363281C27.3344727,22.0288086,27.8310547,22.4438477,28.347168,22.8256836z" id="id_115" style="fill: rgb(255, 255, 255);"></path>
<path d="M34.2851562,17.2407227c0.1206055,0.0473633,0.2446289,0.0703125,0.3666992,0.0703125
	c0.3989258,0,0.7753906-0.2402344,0.9306641-0.6333008c0.1181641-0.2998047,0.2612305-0.6230469,0.4345703-0.9638672
	c0.4013672-0.7880859,0.9057617-1.5522461,1.5004883-2.2709961c0.3520508-0.425293,0.2924805-1.0556641-0.1333008-1.4077148
	c-0.4248047-0.3515625-1.0561523-0.2929688-1.4077148,0.1333008C35.2885742,13,34.7021484,13.8876953,34.234375,14.8071289
	c-0.2041016,0.4018555-0.3725586,0.7827148-0.512207,1.1362305C33.5195312,16.4570312,33.7714844,17.0380859,34.2851562,17.2407227z
	" id="id_116" style="fill: rgb(255, 255, 255);"></path>
</svg>